# xmcd CD database file
#
# Track frame offsets:
#	150
#	16978
#	35306
#	65751
#
# Disc length: 1126 seconds
#
# Revision: 0
# Processed by: cddbd v1.5PL3 Copyright (c) Steve Scherf et al.
# Submitted via: CDex 1.51
#
DISCID=2c046404
DTITLE=ランクヘッド - 千川通りは夕風だった
DYEAR=1900
DGENRE=Rock
TTITLE0=千川通りは夕風だった
TTITLE1=ランドリー
TTITLE2=夕暮れの
TTITLE3=Bonus Track
EXTD=
EXTT0=
EXTT1=
EXTT2=
EXTT3=
PLAYORDER=
